<svg width="336" height="472" viewBox="0 0 336 472" fill="none" xmlns="http://www.w3.org/2000/svg">
<rect x="0.5" y="0.5" width="335" height="471" rx="3.5" fill="white" stroke="#E5E5E5"/>
<circle cx="168" cy="224" r="94" fill="#9B51E0"/>
<path d="M278.328 159.101C291.67 181.784 297.697 208.028 295.588 234.259C293.479 260.49 283.336 285.434 266.541 305.693C249.745 325.952 227.114 340.542 201.728 347.476C176.342 354.411 149.436 353.352 124.674 344.444L168 224L278.328 159.101Z" fill="#FB8832"/>
<path d="M88.804 144.804C100.895 132.713 115.594 123.551 131.775 118.02C147.955 112.489 165.187 110.737 182.15 112.897C199.112 115.058 215.355 121.073 229.632 130.483C243.91 139.892 255.843 152.446 264.518 167.182L168 224L88.804 144.804Z" fill="#007AFF"/>
<path d="M131.073 329.738C116.274 324.569 102.725 316.352 91.3015 305.617L168 224L131.073 329.738Z" fill="#E6E5E6"/>
<g filter="url(#filter0_dd_11_110)">
<path d="M154 134C154 131.791 155.791 130 158 130H206C208.209 130 210 131.791 210 134V158C210 160.209 208.209 162 206 162H190L182 170L174 162H158C155.791 162 154 160.209 154 158V134Z" fill="white"/>
</g>
<path d="M167.845 141.6V150H166.981V142.368H165.001V141.6H167.845ZM175.989 149.232V150H170.097V149.388L173.589 145.968C174.029 145.536 174.325 145.164 174.477 144.852C174.637 144.532 174.717 144.212 174.717 143.892C174.717 143.396 174.545 143.012 174.201 142.74C173.865 142.46 173.381 142.32 172.749 142.32C171.765 142.32 171.001 142.632 170.457 143.256L169.845 142.728C170.173 142.344 170.589 142.048 171.093 141.84C171.605 141.632 172.181 141.528 172.821 141.528C173.677 141.528 174.353 141.732 174.849 142.14C175.353 142.54 175.605 143.092 175.605 143.796C175.605 144.228 175.509 144.644 175.317 145.044C175.125 145.444 174.761 145.904 174.225 146.424L171.369 149.232H175.989ZM180.33 145.2C181.21 145.248 181.878 145.488 182.334 145.92C182.798 146.344 183.03 146.9 183.03 147.588C183.03 148.068 182.914 148.496 182.682 148.872C182.45 149.24 182.106 149.532 181.65 149.748C181.194 149.964 180.638 150.072 179.982 150.072C179.374 150.072 178.798 149.976 178.254 149.784C177.718 149.584 177.286 149.32 176.958 148.992L177.378 148.308C177.658 148.596 178.03 148.832 178.494 149.016C178.958 149.192 179.454 149.28 179.982 149.28C180.67 149.28 181.202 149.132 181.578 148.836C181.954 148.532 182.142 148.116 182.142 147.588C182.142 147.068 181.954 146.66 181.578 146.364C181.202 146.068 180.634 145.92 179.874 145.92H179.274V145.284L181.602 142.368H177.306V141.6H182.706V142.212L180.33 145.2ZM191.787 147.792H190.107V150H189.243V147.792H184.503V147.168L188.955 141.6H189.915L185.619 147.024H189.267V145.08H190.107V147.024H191.787V147.792ZM195.142 145.044C196.358 145.044 197.242 145.264 197.794 145.704C198.354 146.136 198.634 146.744 198.634 147.528C198.634 148.016 198.518 148.452 198.286 148.836C198.062 149.22 197.722 149.524 197.266 149.748C196.81 149.964 196.25 150.072 195.586 150.072C194.986 150.072 194.414 149.976 193.87 149.784C193.334 149.584 192.902 149.32 192.574 148.992L192.994 148.308C193.274 148.596 193.642 148.832 194.098 149.016C194.554 149.192 195.046 149.28 195.574 149.28C196.27 149.28 196.806 149.124 197.182 148.812C197.566 148.5 197.758 148.084 197.758 147.564C197.758 146.988 197.542 146.552 197.11 146.256C196.686 145.96 195.966 145.812 194.95 145.812H193.162L193.594 141.6H198.19V142.368H194.35L194.062 145.044H195.142Z" fill="#333333"/>
<path d="M37.736 49.944V40.176H33.344V49.944C33.344 54.384 36.392 57.192 41.144 57.192C45.872 57.192 48.848 54.384 48.848 49.944V40.176H44.456V49.944C44.456 52.128 43.112 53.448 41.168 53.448C39.176 53.448 37.736 52.104 37.736 49.944ZM60.4835 48.12L61.9235 45.336C60.2915 44.352 58.3955 43.824 56.5235 43.824C53.4755 43.824 51.1955 45.312 51.1955 48.024C51.1955 52.512 57.8915 51.624 57.8915 53.4C57.8915 53.928 57.3155 54.192 56.5235 54.192C55.0835 54.192 53.4035 53.616 51.9155 52.584L50.5715 55.344C52.1555 56.568 54.2435 57.192 56.4275 57.192C59.5955 57.192 61.9235 55.68 61.9235 53.016C61.9475 48.504 55.1315 49.32 55.1315 47.616C55.1315 47.064 55.6355 46.8 56.3555 46.8C57.4115 46.8 58.8755 47.28 60.4835 48.12ZM69.9299 43.872C65.8739 43.872 63.1619 46.536 63.1619 50.568C63.1619 54.528 65.7779 57.144 70.0259 57.144C72.4259 57.144 74.3699 56.328 75.6899 54.84L73.4579 52.608C72.5939 53.472 71.5139 53.928 70.4099 53.928C68.9459 53.928 67.8659 53.112 67.4579 51.648H76.4819C76.7699 46.92 74.4659 43.872 69.9299 43.872ZM67.3619 49.368C67.6499 47.88 68.5619 46.872 69.9539 46.872C71.3939 46.872 72.3539 47.88 72.3539 49.368H67.3619ZM82.9509 46.176V44.016H78.6789V57H82.9509V50.376C83.1669 48.576 84.7509 47.52 87.1269 47.76V43.848C85.3029 43.848 83.8389 44.688 82.9509 46.176ZM97.6554 48.12L99.0954 45.336C97.4634 44.352 95.5674 43.824 93.6954 43.824C90.6474 43.824 88.3674 45.312 88.3674 48.024C88.3674 52.512 95.0634 51.624 95.0634 53.4C95.0634 53.928 94.4874 54.192 93.6954 54.192C92.2554 54.192 90.5754 53.616 89.0874 52.584L87.7434 55.344C89.3274 56.568 91.4154 57.192 93.5994 57.192C96.7674 57.192 99.0954 55.68 99.0954 53.016C99.1194 48.504 92.3034 49.32 92.3034 47.616C92.3034 47.064 92.8074 46.8 93.5274 46.8C94.5834 46.8 96.0474 47.28 97.6554 48.12Z" fill="#333333"/>
<rect x="272.5" y="32.5" width="31" height="31" rx="3.5" stroke="#E5E5E5"/>
<path fill-rule="evenodd" clip-rule="evenodd" d="M283.333 49.3333C282.597 49.3333 282 48.7364 282 48C282 47.2636 282.597 46.6667 283.333 46.6667C284.07 46.6667 284.667 47.2636 284.667 48C284.667 48.7364 284.07 49.3333 283.333 49.3333ZM288 49.3333C287.264 49.3333 286.667 48.7364 286.667 48C286.667 47.2636 287.264 46.6667 288 46.6667C288.736 46.6667 289.333 47.2636 289.333 48C289.333 48.7364 288.736 49.3333 288 49.3333ZM291.333 48C291.333 48.7364 291.93 49.3333 292.667 49.3333C293.403 49.3333 294 48.7364 294 48C294 47.2636 293.403 46.6667 292.667 46.6667C291.93 46.6667 291.333 47.2636 291.333 48Z" fill="#333333"/>
<path d="M75.52 415.5L76.276 414.612C75.688 413.94 74.788 413.568 73.636 413.568C71.74 413.568 70.42 414.888 70.42 416.82C70.42 418.74 71.74 420.048 73.636 420.048C74.848 420.048 75.772 419.616 76.348 418.86L75.58 418.092C75.148 418.596 74.5 418.86 73.696 418.86C72.592 418.86 71.8 418.032 71.8 416.82C71.8 415.608 72.592 414.78 73.696 414.78C74.464 414.768 75.076 415.044 75.52 415.5ZM83.1079 420L83.0959 415.812C83.0839 414.408 82.1599 413.568 80.5159 413.568C79.3039 413.568 78.6559 413.844 77.7679 414.372L78.3319 415.332C78.9679 414.9 79.6039 414.684 80.2159 414.684C81.2239 414.684 81.7399 415.164 81.7399 415.968V416.16H79.8079C78.2719 416.172 77.3959 416.916 77.3959 418.08C77.3959 419.208 78.2599 420.06 79.6399 420.06C80.5639 420.06 81.2959 419.784 81.7519 419.22V420H83.1079ZM79.9279 418.968C79.1599 418.968 78.6919 418.596 78.6919 418.02C78.6919 417.408 79.1119 417.168 80.0119 417.168H81.7399V417.756C81.6679 418.452 80.9119 418.968 79.9279 418.968ZM88.6192 418.536C88.2472 418.716 87.9472 418.812 87.6592 418.812C87.2272 418.812 86.9752 418.608 86.9752 417.948V414.888H88.8592V413.856H86.9752V412.104H85.6072V413.856H84.7072V414.888H85.6072V418.2C85.6072 419.508 86.4352 420.06 87.3952 420.06C87.9352 420.06 88.4632 419.892 88.9672 419.592L88.6192 418.536ZM97.8899 414.78L97.9739 413.748H96.3059L96.5699 411.6H95.5499L95.2859 413.748H93.1619L93.4259 411.6H92.4059L92.1419 413.748H90.4379L90.3419 414.78H92.0099L91.7579 416.892H90.0419L89.9459 417.924H91.6259L91.3739 420H92.3819L92.6459 417.924H94.7699L94.5179 420H95.5259L95.7899 417.924H97.4939L97.5899 416.892H95.9099L96.1739 414.78H97.8899ZM94.9019 416.892H92.7659L93.0299 414.78H95.1539L94.9019 416.892ZM99.9892 411.588V412.86H101.801V420H103.217V411.588H99.9892Z" fill="#9C9C9C"/>
<circle cx="50" cy="416" r="4" fill="#007AFF"/>
<path d="M162.52 415.5L163.276 414.612C162.688 413.94 161.788 413.568 160.636 413.568C158.74 413.568 157.42 414.888 157.42 416.82C157.42 418.74 158.74 420.048 160.636 420.048C161.848 420.048 162.772 419.616 163.348 418.86L162.58 418.092C162.148 418.596 161.5 418.86 160.696 418.86C159.592 418.86 158.8 418.032 158.8 416.82C158.8 415.608 159.592 414.78 160.696 414.78C161.464 414.768 162.076 415.044 162.52 415.5ZM170.108 420L170.096 415.812C170.084 414.408 169.16 413.568 167.516 413.568C166.304 413.568 165.656 413.844 164.768 414.372L165.332 415.332C165.968 414.9 166.604 414.684 167.216 414.684C168.224 414.684 168.74 415.164 168.74 415.968V416.16H166.808C165.272 416.172 164.396 416.916 164.396 418.08C164.396 419.208 165.26 420.06 166.64 420.06C167.564 420.06 168.296 419.784 168.752 419.22V420H170.108ZM166.928 418.968C166.16 418.968 165.692 418.596 165.692 418.02C165.692 417.408 166.112 417.168 167.012 417.168H168.74V417.756C168.668 418.452 167.912 418.968 166.928 418.968ZM175.619 418.536C175.247 418.716 174.947 418.812 174.659 418.812C174.227 418.812 173.975 418.608 173.975 417.948V414.888H175.859V413.856H173.975V412.104H172.607V413.856H171.707V414.888H172.607V418.2C172.607 419.508 173.435 420.06 174.395 420.06C174.935 420.06 175.463 419.892 175.967 419.592L175.619 418.536ZM184.89 414.78L184.974 413.748H183.306L183.57 411.6H182.55L182.286 413.748H180.162L180.426 411.6H179.406L179.142 413.748H177.438L177.342 414.78H179.01L178.758 416.892H177.042L176.946 417.924H178.626L178.374 420H179.382L179.646 417.924H181.77L181.518 420H182.526L182.79 417.924H184.494L184.59 416.892H182.91L183.174 414.78H184.89ZM181.902 416.892H179.766L180.03 414.78H182.154L181.902 416.892ZM189.545 415.644L186.341 418.956V420H192.497V418.728H188.201L190.505 416.4C191.429 415.44 192.089 414.492 192.089 413.652C192.089 412.356 190.973 411.528 189.329 411.528C188.225 411.528 187.133 411.984 186.197 412.728L186.773 413.82C187.493 413.172 188.381 412.776 189.137 412.776C190.061 412.776 190.613 413.172 190.613 413.856C190.613 414.336 190.181 415.008 189.545 415.644Z" fill="#9C9C9C"/>
<circle cx="137" cy="416" r="4" fill="#FB8832"/>
<path d="M249.52 415.5L250.276 414.612C249.688 413.94 248.788 413.568 247.636 413.568C245.74 413.568 244.42 414.888 244.42 416.82C244.42 418.74 245.74 420.048 247.636 420.048C248.848 420.048 249.772 419.616 250.348 418.86L249.58 418.092C249.148 418.596 248.5 418.86 247.696 418.86C246.592 418.86 245.8 418.032 245.8 416.82C245.8 415.608 246.592 414.78 247.696 414.78C248.464 414.768 249.076 415.044 249.52 415.5ZM257.108 420L257.096 415.812C257.084 414.408 256.16 413.568 254.516 413.568C253.304 413.568 252.656 413.844 251.768 414.372L252.332 415.332C252.968 414.9 253.604 414.684 254.216 414.684C255.224 414.684 255.74 415.164 255.74 415.968V416.16H253.808C252.272 416.172 251.396 416.916 251.396 418.08C251.396 419.208 252.26 420.06 253.64 420.06C254.564 420.06 255.296 419.784 255.752 419.22V420H257.108ZM253.928 418.968C253.16 418.968 252.692 418.596 252.692 418.02C252.692 417.408 253.112 417.168 254.012 417.168H255.74V417.756C255.668 418.452 254.912 418.968 253.928 418.968ZM262.619 418.536C262.247 418.716 261.947 418.812 261.659 418.812C261.227 418.812 260.975 418.608 260.975 417.948V414.888H262.859V413.856H260.975V412.104H259.607V413.856H258.707V414.888H259.607V418.2C259.607 419.508 260.435 420.06 261.395 420.06C261.935 420.06 262.463 419.892 262.967 419.592L262.619 418.536ZM271.89 414.78L271.974 413.748H270.306L270.57 411.6H269.55L269.286 413.748H267.162L267.426 411.6H266.406L266.142 413.748H264.438L264.342 414.78H266.01L265.758 416.892H264.042L263.946 417.924H265.626L265.374 420H266.382L266.646 417.924H268.77L268.518 420H269.526L269.79 417.924H271.494L271.59 416.892H269.91L270.174 414.78H271.89ZM268.902 416.892H266.766L267.03 414.78H269.154L268.902 416.892ZM276.689 415.128L276.197 415.092L278.897 412.488V411.6H273.377L273.389 412.86H277.133L274.673 415.224V416.04H275.897C277.181 416.04 277.937 416.508 277.937 417.42C277.937 418.296 277.193 418.872 275.921 418.872C275.069 418.872 274.217 418.56 273.557 417.996L272.969 419.148C273.737 419.7 274.901 420.06 276.017 420.06C278.045 420.06 279.317 418.968 279.317 417.396C279.317 416.064 278.261 415.26 276.689 415.128Z" fill="#9C9C9C"/>
<circle cx="224" cy="416" r="4" fill="#9B51E0"/>
<defs>
<filter id="filter0_dd_11_110" x="130" y="110" width="104" height="88" filterUnits="userSpaceOnUse" color-interpolation-filters="sRGB">
<feFlood flood-opacity="0" result="BackgroundImageFix"/>
<feColorMatrix in="SourceAlpha" type="matrix" values="0 0 0 0 0 0 0 0 0 0 0 0 0 0 0 0 0 0 127 0" result="hardAlpha"/>
<feOffset dy="4"/>
<feGaussianBlur stdDeviation="12"/>
<feColorMatrix type="matrix" values="0 0 0 0 0 0 0 0 0 0 0 0 0 0 0 0 0 0 0.08 0"/>
<feBlend mode="normal" in2="BackgroundImageFix" result="effect1_dropShadow_11_110"/>
<feColorMatrix in="SourceAlpha" type="matrix" values="0 0 0 0 0 0 0 0 0 0 0 0 0 0 0 0 0 0 127 0" result="hardAlpha"/>
<feOffset dy="2"/>
<feGaussianBlur stdDeviation="2"/>
<feColorMatrix type="matrix" values="0 0 0 0 0 0 0 0 0 0 0 0 0 0 0 0 0 0 0.08 0"/>
<feBlend mode="normal" in2="effect1_dropShadow_11_110" result="effect2_dropShadow_11_110"/>
<feBlend mode="normal" in="SourceGraphic" in2="effect2_dropShadow_11_110" result="shape"/>
</filter>
</defs>
</svg>
