<svg width="328" height="472" viewBox="0 0 328 472" fill="none" xmlns="http://www.w3.org/2000/svg">
<rect x="0.5" y="0.5" width="327" height="471" rx="3.5" fill="white" stroke="#E5E5E5"/>
<circle cx="164" cy="224" r="128" fill="#E6E5E6"/>
<path d="M274.328 159.101C287.67 181.784 293.697 208.028 291.588 234.259C289.479 260.49 279.336 285.434 262.541 305.693C245.745 325.952 223.114 340.542 197.728 347.476C172.342 354.411 145.436 353.352 120.674 344.444L164 224L274.328 159.101Z" fill="#007AFF"/>
<path d="M73.4903 133.49C87.463 119.518 104.481 108.97 123.211 102.673C141.942 96.376 161.875 94.5011 181.451 97.1952C201.027 99.8893 219.713 107.079 236.046 118.202C252.379 129.324 265.915 144.077 275.594 161.304L164 224L73.4903 133.49Z" fill="#9013FE"/>
<path d="M121.798 344.843C104.885 338.936 89.3996 329.545 76.3445 317.277L164 224L121.798 344.843Z" fill="#FB8832"/>
<g filter="url(#filter0_dd_11_83)">
<path d="M150 134C150 131.791 151.791 130 154 130H202C204.209 130 206 131.791 206 134V158C206 160.209 204.209 162 202 162H186L178 170L170 162H154C151.791 162 150 160.209 150 158V134Z" fill="white"/>
</g>
<path d="M166.45 147.78C166.45 148.396 166.214 148.92 165.742 149.352C165.27 149.776 164.578 150.012 163.666 150.06V151.44H163.066V150.072C162.482 150.04 161.93 149.928 161.41 149.736C160.898 149.536 160.494 149.284 160.198 148.98L160.546 148.296C160.826 148.568 161.19 148.796 161.638 148.98C162.094 149.164 162.57 149.272 163.066 149.304V146.148C162.514 146.012 162.054 145.868 161.686 145.716C161.318 145.556 161.01 145.328 160.762 145.032C160.522 144.728 160.402 144.328 160.402 143.832C160.402 143.216 160.626 142.7 161.074 142.284C161.522 141.86 162.186 141.612 163.066 141.54V140.16H163.666V141.528C164.122 141.544 164.562 141.62 164.986 141.756C165.418 141.884 165.79 142.056 166.102 142.272L165.802 142.98C165.474 142.772 165.126 142.608 164.758 142.488C164.39 142.368 164.026 142.3 163.666 142.284V145.464C164.258 145.608 164.742 145.756 165.118 145.908C165.494 146.052 165.81 146.276 166.066 146.58C166.322 146.884 166.45 147.284 166.45 147.78ZM161.278 143.808C161.278 144.224 161.43 144.54 161.734 144.756C162.046 144.972 162.49 145.156 163.066 145.308V142.308C162.474 142.356 162.026 142.52 161.722 142.8C161.426 143.072 161.278 143.408 161.278 143.808ZM163.666 149.304C164.298 149.256 164.774 149.1 165.094 148.836C165.414 148.572 165.574 148.236 165.574 147.828C165.574 147.396 165.41 147.072 165.082 146.856C164.754 146.64 164.282 146.456 163.666 146.304V149.304ZM173.776 149.232V150H167.884V149.388L171.376 145.968C171.816 145.536 172.112 145.164 172.264 144.852C172.424 144.532 172.504 144.212 172.504 143.892C172.504 143.396 172.332 143.012 171.988 142.74C171.652 142.46 171.168 142.32 170.536 142.32C169.552 142.32 168.788 142.632 168.244 143.256L167.632 142.728C167.96 142.344 168.376 142.048 168.88 141.84C169.392 141.632 169.968 141.528 170.608 141.528C171.464 141.528 172.14 141.732 172.636 142.14C173.14 142.54 173.392 143.092 173.392 143.796C173.392 144.228 173.296 144.644 173.104 145.044C172.912 145.444 172.548 145.904 172.012 146.424L169.156 149.232H173.776ZM177.469 145.044C178.685 145.044 179.569 145.264 180.121 145.704C180.681 146.136 180.961 146.744 180.961 147.528C180.961 148.016 180.845 148.452 180.613 148.836C180.389 149.22 180.049 149.524 179.593 149.748C179.137 149.964 178.577 150.072 177.913 150.072C177.313 150.072 176.741 149.976 176.197 149.784C175.661 149.584 175.229 149.32 174.901 148.992L175.321 148.308C175.601 148.596 175.969 148.832 176.425 149.016C176.881 149.192 177.373 149.28 177.901 149.28C178.597 149.28 179.133 149.124 179.509 148.812C179.893 148.5 180.085 148.084 180.085 147.564C180.085 146.988 179.869 146.552 179.437 146.256C179.013 145.96 178.293 145.812 177.277 145.812H175.489L175.921 141.6H180.517V142.368H176.677L176.389 145.044H177.469ZM185.938 144.972C186.49 144.972 186.978 145.076 187.402 145.284C187.834 145.492 188.17 145.788 188.41 146.172C188.65 146.548 188.77 146.988 188.77 147.492C188.77 148.004 188.646 148.456 188.398 148.848C188.15 149.24 187.806 149.544 187.366 149.76C186.934 149.968 186.446 150.072 185.902 150.072C184.79 150.072 183.938 149.708 183.346 148.98C182.754 148.244 182.458 147.208 182.458 145.872C182.458 144.936 182.618 144.144 182.938 143.496C183.258 142.848 183.706 142.36 184.282 142.032C184.858 141.696 185.53 141.528 186.298 141.528C187.13 141.528 187.794 141.68 188.29 141.984L187.942 142.68C187.542 142.416 186.998 142.284 186.31 142.284C185.382 142.284 184.654 142.58 184.126 143.172C183.598 143.756 183.334 144.608 183.334 145.728C183.334 145.928 183.346 146.156 183.37 146.412C183.578 145.956 183.91 145.604 184.366 145.356C184.822 145.1 185.346 144.972 185.938 144.972ZM185.866 149.34C186.474 149.34 186.966 149.176 187.342 148.848C187.726 148.512 187.918 148.068 187.918 147.516C187.918 146.964 187.726 146.524 187.342 146.196C186.966 145.868 186.454 145.704 185.806 145.704C185.382 145.704 185.006 145.784 184.678 145.944C184.358 146.104 184.106 146.324 183.922 146.604C183.738 146.884 183.646 147.196 183.646 147.54C183.646 147.86 183.73 148.156 183.898 148.428C184.074 148.7 184.33 148.92 184.666 149.088C185.002 149.256 185.402 149.34 185.866 149.34ZM195.906 149.232V150H190.014V149.388L193.506 145.968C193.946 145.536 194.242 145.164 194.394 144.852C194.554 144.532 194.634 144.212 194.634 143.892C194.634 143.396 194.462 143.012 194.118 142.74C193.782 142.46 193.298 142.32 192.666 142.32C191.682 142.32 190.918 142.632 190.374 143.256L189.762 142.728C190.09 142.344 190.506 142.048 191.01 141.84C191.522 141.632 192.098 141.528 192.738 141.528C193.594 141.528 194.27 141.732 194.766 142.14C195.27 142.54 195.522 143.092 195.522 143.796C195.522 144.228 195.426 144.644 195.234 145.044C195.042 145.444 194.678 145.904 194.142 146.424L191.286 149.232H195.906Z" fill="#333333"/>
<path d="M45.8 45.984L48.344 42.936C46.664 41.16 44.048 40.056 41.552 40.056C36.416 40.056 32.552 43.704 32.552 48.552C32.552 53.496 36.32 57.192 41.384 57.192C43.88 57.192 46.568 55.968 48.368 54.072L45.8 51.312C44.624 52.512 43.016 53.28 41.624 53.28C39.032 53.28 37.064 51.216 37.064 48.504C37.064 45.816 39.032 43.776 41.624 43.776C43.088 43.776 44.696 44.64 45.8 45.984ZM55.9919 43.872C51.7199 43.872 48.9119 46.512 48.9119 50.496C48.9119 54.504 51.7199 57.144 55.9919 57.144C60.2639 57.144 63.0959 54.504 63.0959 50.496C63.0959 46.512 60.2639 43.872 55.9919 43.872ZM55.9919 47.328C57.6719 47.328 58.7999 48.624 58.7999 50.544C58.7999 52.488 57.6719 53.784 55.9919 53.784C54.3359 53.784 53.2079 52.488 53.2079 50.544C53.2079 48.624 54.3359 47.328 55.9919 47.328ZM73.8406 43.848C71.9446 43.848 70.4566 44.64 69.5446 46.128V44.016H65.2726V57H69.5446V50.136C69.7126 48.672 70.6486 47.688 72.0886 47.664C73.4326 47.664 74.2966 48.576 74.2966 50.04V57H78.5446V48.816C78.5446 45.768 76.6726 43.848 73.8406 43.848ZM79.5284 44.016L84.3764 57H88.7684L93.6404 44.016H89.3684L86.6324 53.04L83.9204 44.016H79.5284ZM100.399 43.872C96.3427 43.872 93.6307 46.536 93.6307 50.568C93.6307 54.528 96.2467 57.144 100.495 57.144C102.895 57.144 104.839 56.328 106.159 54.84L103.927 52.608C103.063 53.472 101.983 53.928 100.879 53.928C99.4147 53.928 98.3347 53.112 97.9267 51.648H106.951C107.239 46.92 104.935 43.872 100.399 43.872ZM97.8307 49.368C98.1187 47.88 99.0307 46.872 100.423 46.872C101.863 46.872 102.823 47.88 102.823 49.368H97.8307ZM113.42 46.176V44.016H109.148V57H113.42V50.376C113.636 48.576 115.22 47.52 117.596 47.76V43.848C115.772 43.848 114.308 44.688 113.42 46.176ZM128.124 48.12L129.564 45.336C127.932 44.352 126.036 43.824 124.164 43.824C121.116 43.824 118.836 45.312 118.836 48.024C118.836 52.512 125.532 51.624 125.532 53.4C125.532 53.928 124.956 54.192 124.164 54.192C122.724 54.192 121.044 53.616 119.556 52.584L118.212 55.344C119.796 56.568 121.884 57.192 124.068 57.192C127.236 57.192 129.564 55.68 129.564 53.016C129.588 48.504 122.772 49.32 122.772 47.616C122.772 47.064 123.276 46.8 123.996 46.8C125.052 46.8 126.516 47.28 128.124 48.12ZM133.995 38.4C132.867 38.4 132.051 39.216 132.051 40.368C132.051 41.496 132.867 42.312 133.995 42.312C135.123 42.312 135.939 41.496 135.939 40.368C135.939 39.216 135.123 38.4 133.995 38.4ZM131.859 44.016V57H136.107V44.016H131.859ZM145.406 43.872C141.134 43.872 138.326 46.512 138.326 50.496C138.326 54.504 141.134 57.144 145.406 57.144C149.678 57.144 152.51 54.504 152.51 50.496C152.51 46.512 149.678 43.872 145.406 43.872ZM145.406 47.328C147.086 47.328 148.214 48.624 148.214 50.544C148.214 52.488 147.086 53.784 145.406 53.784C143.75 53.784 142.622 52.488 142.622 50.544C142.622 48.624 143.75 47.328 145.406 47.328ZM163.255 43.848C161.359 43.848 159.871 44.64 158.959 46.128V44.016H154.687V57H158.959V50.136C159.127 48.672 160.063 47.688 161.503 47.664C162.847 47.664 163.711 48.576 163.711 50.04V57H167.959V48.816C167.959 45.768 166.087 43.848 163.255 43.848Z" fill="#333333"/>
<rect x="264.5" y="32.5" width="31" height="31" rx="3.5" stroke="#E5E5E5"/>
<path fill-rule="evenodd" clip-rule="evenodd" d="M275.333 49.3333C274.597 49.3333 274 48.7364 274 48C274 47.2636 274.597 46.6667 275.333 46.6667C276.07 46.6667 276.667 47.2636 276.667 48C276.667 48.7364 276.07 49.3333 275.333 49.3333ZM280 49.3333C279.264 49.3333 278.667 48.7364 278.667 48C278.667 47.2636 279.264 46.6667 280 46.6667C280.736 46.6667 281.333 47.2636 281.333 48C281.333 48.7364 280.736 49.3333 280 49.3333ZM283.333 48C283.333 48.7364 283.93 49.3333 284.667 49.3333C285.403 49.3333 286 48.7364 286 48C286 47.2636 285.403 46.6667 284.667 46.6667C283.93 46.6667 283.333 47.2636 283.333 48Z" fill="#333333"/>
<path d="M67.104 411.6V420H68.52V411.6H67.104ZM74.3051 418.536C73.9331 418.716 73.6331 418.812 73.3451 418.812C72.9131 418.812 72.6611 418.608 72.6611 417.948V414.888H74.5451V413.856H72.6611V412.104H71.2931V413.856H70.3931V414.888H71.2931V418.2C71.2931 419.508 72.1211 420.06 73.0811 420.06C73.6211 420.06 74.1491 419.892 74.6531 419.592L74.3051 418.536ZM78.8855 413.568C76.9895 413.58 75.6575 414.888 75.6575 416.82C75.6575 418.74 76.9535 420.048 78.9215 420.048C80.0255 420.048 80.9375 419.652 81.5615 418.968L80.8295 418.188C80.3615 418.668 79.7255 418.932 79.0295 418.932C78.0215 418.932 77.2655 418.32 77.0495 417.336H81.8735C82.0415 415.032 81.1295 413.568 78.8855 413.568ZM77.0255 416.328C77.1695 415.308 77.8895 414.672 78.8975 414.672C79.9415 414.672 80.6255 415.296 80.6735 416.328H77.0255ZM92.0402 413.568C90.8762 413.568 90.0242 414.036 89.6162 415.104C89.3162 414.132 88.5362 413.568 87.3962 413.568C86.3402 413.568 85.5242 413.952 85.0802 414.852V413.616H83.7122V420H85.0802V416.844C85.0802 415.728 85.7522 414.888 86.8562 414.852C87.7922 414.852 88.3562 415.44 88.3562 416.412V420H89.7362V416.844C89.7362 415.728 90.3962 414.888 91.4882 414.852C92.4242 414.852 93.0002 415.44 93.0002 416.412V420H94.3802V416.028C94.3802 414.504 93.5042 413.568 92.0402 413.568ZM103.876 414.78L103.96 413.748H102.292L102.556 411.6H101.536L101.272 413.748H99.1478L99.4118 411.6H98.3918L98.1278 413.748H96.4238L96.3278 414.78H97.9958L97.7438 416.892H96.0278L95.9318 417.924H97.6118L97.3598 420H98.3678L98.6318 417.924H100.756L100.504 420H101.512L101.776 417.924H103.48L103.576 416.892H101.896L102.16 414.78H103.876ZM100.888 416.892H98.7518L99.0158 414.78H101.14L100.888 416.892ZM105.975 411.588V412.86H107.787V420H109.203V411.588H105.975Z" fill="#9C9C9C"/>
<circle cx="46" cy="416" r="4" fill="#007AFF"/>
<path d="M154.104 411.6V420H155.52V411.6H154.104ZM161.305 418.536C160.933 418.716 160.633 418.812 160.345 418.812C159.913 418.812 159.661 418.608 159.661 417.948V414.888H161.545V413.856H159.661V412.104H158.293V413.856H157.393V414.888H158.293V418.2C158.293 419.508 159.121 420.06 160.081 420.06C160.621 420.06 161.149 419.892 161.653 419.592L161.305 418.536ZM165.886 413.568C163.99 413.58 162.658 414.888 162.658 416.82C162.658 418.74 163.954 420.048 165.922 420.048C167.026 420.048 167.938 419.652 168.562 418.968L167.83 418.188C167.362 418.668 166.726 418.932 166.03 418.932C165.022 418.932 164.266 418.32 164.05 417.336H168.874C169.042 415.032 168.13 413.568 165.886 413.568ZM164.026 416.328C164.17 415.308 164.89 414.672 165.898 414.672C166.942 414.672 167.626 415.296 167.674 416.328H164.026ZM179.04 413.568C177.876 413.568 177.024 414.036 176.616 415.104C176.316 414.132 175.536 413.568 174.396 413.568C173.34 413.568 172.524 413.952 172.08 414.852V413.616H170.712V420H172.08V416.844C172.08 415.728 172.752 414.888 173.856 414.852C174.792 414.852 175.356 415.44 175.356 416.412V420H176.736V416.844C176.736 415.728 177.396 414.888 178.488 414.852C179.424 414.852 180 415.44 180 416.412V420H181.38V416.028C181.38 414.504 180.504 413.568 179.04 413.568ZM190.876 414.78L190.96 413.748H189.292L189.556 411.6H188.536L188.272 413.748H186.148L186.412 411.6H185.392L185.128 413.748H183.424L183.328 414.78H184.996L184.744 416.892H183.028L182.932 417.924H184.612L184.36 420H185.368L185.632 417.924H187.756L187.504 420H188.512L188.776 417.924H190.48L190.576 416.892H188.896L189.16 414.78H190.876ZM187.888 416.892H185.752L186.016 414.78H188.14L187.888 416.892ZM195.531 415.644L192.327 418.956V420H198.483V418.728H194.187L196.491 416.4C197.415 415.44 198.075 414.492 198.075 413.652C198.075 412.356 196.959 411.528 195.315 411.528C194.211 411.528 193.119 411.984 192.183 412.728L192.759 413.82C193.479 413.172 194.367 412.776 195.123 412.776C196.047 412.776 196.599 413.172 196.599 413.856C196.599 414.336 196.167 415.008 195.531 415.644Z" fill="#9C9C9C"/>
<circle cx="133" cy="416" r="4" fill="#FB8832"/>
<path d="M241.104 411.6V420H242.52V411.6H241.104ZM248.305 418.536C247.933 418.716 247.633 418.812 247.345 418.812C246.913 418.812 246.661 418.608 246.661 417.948V414.888H248.545V413.856H246.661V412.104H245.293V413.856H244.393V414.888H245.293V418.2C245.293 419.508 246.121 420.06 247.081 420.06C247.621 420.06 248.149 419.892 248.653 419.592L248.305 418.536ZM252.886 413.568C250.99 413.58 249.658 414.888 249.658 416.82C249.658 418.74 250.954 420.048 252.922 420.048C254.026 420.048 254.938 419.652 255.562 418.968L254.83 418.188C254.362 418.668 253.726 418.932 253.03 418.932C252.022 418.932 251.266 418.32 251.05 417.336H255.874C256.042 415.032 255.13 413.568 252.886 413.568ZM251.026 416.328C251.17 415.308 251.89 414.672 252.898 414.672C253.942 414.672 254.626 415.296 254.674 416.328H251.026ZM266.04 413.568C264.876 413.568 264.024 414.036 263.616 415.104C263.316 414.132 262.536 413.568 261.396 413.568C260.34 413.568 259.524 413.952 259.08 414.852V413.616H257.712V420H259.08V416.844C259.08 415.728 259.752 414.888 260.856 414.852C261.792 414.852 262.356 415.44 262.356 416.412V420H263.736V416.844C263.736 415.728 264.396 414.888 265.488 414.852C266.424 414.852 267 415.44 267 416.412V420H268.38V416.028C268.38 414.504 267.504 413.568 266.04 413.568ZM277.876 414.78L277.96 413.748H276.292L276.556 411.6H275.536L275.272 413.748H273.148L273.412 411.6H272.392L272.128 413.748H270.424L270.328 414.78H271.996L271.744 416.892H270.028L269.932 417.924H271.612L271.36 420H272.368L272.632 417.924H274.756L274.504 420H275.512L275.776 417.924H277.48L277.576 416.892H275.896L276.16 414.78H277.876ZM274.888 416.892H272.752L273.016 414.78H275.14L274.888 416.892ZM282.675 415.128L282.183 415.092L284.883 412.488V411.6H279.363L279.375 412.86H283.119L280.659 415.224V416.04H281.883C283.167 416.04 283.923 416.508 283.923 417.42C283.923 418.296 283.179 418.872 281.907 418.872C281.055 418.872 280.203 418.56 279.543 417.996L278.955 419.148C279.723 419.7 280.887 420.06 282.003 420.06C284.031 420.06 285.303 418.968 285.303 417.396C285.303 416.064 284.247 415.26 282.675 415.128Z" fill="#9C9C9C"/>
<circle cx="220" cy="416" r="4" fill="#9B51E0"/>
<defs>
<filter id="filter0_dd_11_83" x="126" y="110" width="104" height="88" filterUnits="userSpaceOnUse" color-interpolation-filters="sRGB">
<feFlood flood-opacity="0" result="BackgroundImageFix"/>
<feColorMatrix in="SourceAlpha" type="matrix" values="0 0 0 0 0 0 0 0 0 0 0 0 0 0 0 0 0 0 127 0" result="hardAlpha"/>
<feOffset dy="4"/>
<feGaussianBlur stdDeviation="12"/>
<feColorMatrix type="matrix" values="0 0 0 0 0 0 0 0 0 0 0 0 0 0 0 0 0 0 0.08 0"/>
<feBlend mode="normal" in2="BackgroundImageFix" result="effect1_dropShadow_11_83"/>
<feColorMatrix in="SourceAlpha" type="matrix" values="0 0 0 0 0 0 0 0 0 0 0 0 0 0 0 0 0 0 127 0" result="hardAlpha"/>
<feOffset dy="2"/>
<feGaussianBlur stdDeviation="2"/>
<feColorMatrix type="matrix" values="0 0 0 0 0 0 0 0 0 0 0 0 0 0 0 0 0 0 0.08 0"/>
<feBlend mode="normal" in2="effect1_dropShadow_11_83" result="effect2_dropShadow_11_83"/>
<feBlend mode="normal" in="SourceGraphic" in2="effect2_dropShadow_11_83" result="shape"/>
</filter>
</defs>
</svg>
