<svg width="360" height="1024" viewBox="0 0 360 1024" fill="none" xmlns="http://www.w3.org/2000/svg">
<rect width="360" height="1024" fill="white"/>
<rect width="72" height="1024" fill="#F5F5F5"/>
<mask id="mask0_0_30" style="mask-type:alpha" maskUnits="userSpaceOnUse" x="13" y="960" width="48" height="48">
<rect x="13" y="960" width="48" height="48" rx="24" fill="#C4C4C4"/>
</mask>
<g mask="url(#mask0_0_30)">
<rect x="13" y="960" width="48" height="48" rx="24"/>
</g>
<circle cx="52" cy="999" r="9" fill="#007AFF"/>
<path d="M54.4649 996.232L55.0169 995.164C54.3329 994.78 53.3369 994.528 52.5089 994.528C50.2889 994.528 48.8849 996.28 48.8849 998.968C48.8849 1001.55 50.1809 1003.06 52.3049 1003.06C54.0929 1003.06 55.2689 1001.98 55.2689 1000.24C55.2689 998.596 54.2369 997.552 52.5569 997.552C51.5009 997.552 50.7089 997.96 50.2649 998.752C50.2049 996.928 50.9729 995.704 52.6049 995.704C53.2409 995.704 53.9489 995.896 54.4649 996.232ZM52.2929 998.668C53.3129 998.668 53.9489 999.268 53.9489 1000.23C53.9489 1001.25 53.2529 1001.85 52.2329 1001.85C51.0209 1001.85 50.4809 1001.01 50.4929 1000.28C50.4809 999.412 51.1529 998.668 52.2929 998.668Z" fill="white"/>
<path d="M33.09 921C33.5754 919.62 34.9854 918.791 36.4272 919.039C37.869 919.286 38.9222 920.537 38.92 922C38.92 924 35.92 925 35.92 925" stroke="#333333" stroke-width="2" stroke-linecap="round" stroke-linejoin="round"/>
<path fill-rule="evenodd" clip-rule="evenodd" d="M36 934C41.5228 934 46 929.523 46 924C46 918.477 41.5228 914 36 914C30.4772 914 26 918.477 26 924C26 929.523 30.4772 934 36 934Z" stroke="#333333" stroke-width="2" stroke-linecap="round" stroke-linejoin="round"/>
<circle cx="36" cy="929" r="0.5" stroke="#333333"/>
<path fill-rule="evenodd" clip-rule="evenodd" d="M34 115H38V133H34V115Z" stroke="#333333" stroke-width="2" stroke-linecap="round" stroke-linejoin="round"/>
<path fill-rule="evenodd" clip-rule="evenodd" d="M42 120H46V133H42V120Z" stroke="#333333" stroke-width="2" stroke-linecap="round" stroke-linejoin="round"/>
<path fill-rule="evenodd" clip-rule="evenodd" d="M26 125H30V133H26V125Z" stroke="#333333" stroke-width="2" stroke-linecap="round" stroke-linejoin="round"/>
<path fill-rule="evenodd" clip-rule="evenodd" d="M27 181C27 179.895 27.8954 179 29 179H43C44.1046 179 45 179.895 45 181V195C45 196.105 44.1046 197 43 197H29C27.8954 197 27 196.105 27 195V181Z" stroke="#007AFF" stroke-width="2" stroke-linecap="round" stroke-linejoin="round"/>
<path d="M27 185H45" stroke="#007AFF" stroke-width="2" stroke-linecap="round" stroke-linejoin="round"/>
<path d="M33 197V185" stroke="#007AFF" stroke-width="2" stroke-linecap="round" stroke-linejoin="round"/>
<path fill-rule="evenodd" clip-rule="evenodd" d="M45 255C45 256.105 44.1046 257 43 257H31L27 261V245C27 243.895 27.8954 243 29 243H43C44.1046 243 45 243.895 45 245V255Z" stroke="#333333" stroke-width="2" stroke-linecap="round" stroke-linejoin="round"/>
<path d="M45.21 319.89C43.4598 324.029 39.1638 326.492 34.7078 325.912C30.2517 325.331 26.7301 321.849 26.0988 317.4C25.4674 312.951 27.8814 308.627 32 306.83" stroke="#333333" stroke-width="2" stroke-linecap="round" stroke-linejoin="round"/>
<path fill-rule="evenodd" clip-rule="evenodd" d="M46 316C46 313.348 44.9464 310.804 43.0711 308.929C41.1957 307.054 38.6522 306 36 306V316H46Z" stroke="#333333" stroke-width="2" stroke-linecap="round" stroke-linejoin="round"/>
<path fill-rule="evenodd" clip-rule="evenodd" d="M36 383C37.6569 383 39 381.657 39 380C39 378.343 37.6569 377 36 377C34.3431 377 33 378.343 33 380C33 381.657 34.3431 383 36 383Z" stroke="#333333" stroke-width="2" stroke-linecap="round" stroke-linejoin="round"/>
<path fill-rule="evenodd" clip-rule="evenodd" d="M43.4 383C43.1277 383.617 43.2583 384.338 43.73 384.82L43.79 384.88C44.1656 385.255 44.3766 385.764 44.3766 386.295C44.3766 386.826 44.1656 387.335 43.79 387.71C43.4149 388.086 42.9058 388.297 42.375 388.297C41.8442 388.297 41.3351 388.086 40.96 387.71L40.9 387.65C40.4178 387.178 39.6971 387.048 39.08 387.32C38.4755 387.579 38.0826 388.172 38.08 388.83V389C38.08 390.105 37.1846 391 36.08 391C34.9754 391 34.08 390.105 34.08 389V388.91C34.0642 388.233 33.6359 387.634 33 387.4C32.3829 387.128 31.6622 387.258 31.18 387.73L31.12 387.79C30.7449 388.166 30.2358 388.377 29.705 388.377C29.1742 388.377 28.6651 388.166 28.29 387.79C27.9144 387.415 27.7034 386.906 27.7034 386.375C27.7034 385.844 27.9144 385.335 28.29 384.96L28.35 384.9C28.8217 384.418 28.9523 383.697 28.68 383.08C28.4209 382.476 27.8276 382.083 27.17 382.08H27C25.8954 382.08 25 381.185 25 380.08C25 378.975 25.8954 378.08 27 378.08H27.09C27.7673 378.064 28.3661 377.636 28.6 377C28.8723 376.383 28.7417 375.662 28.27 375.18L28.21 375.12C27.8344 374.745 27.6234 374.236 27.6234 373.705C27.6234 373.174 27.8344 372.665 28.21 372.29C28.5851 371.914 29.0942 371.703 29.625 371.703C30.1558 371.703 30.6649 371.914 31.04 372.29L31.1 372.35C31.5822 372.822 32.3029 372.952 32.92 372.68H33C33.6045 372.421 33.9974 371.828 34 371.17V371C34 369.895 34.8954 369 36 369C37.1046 369 38 369.895 38 371V371.09C38.0026 371.748 38.3955 372.341 39 372.6C39.6171 372.872 40.3378 372.742 40.82 372.27L40.88 372.21C41.2551 371.834 41.7642 371.623 42.295 371.623C42.8258 371.623 43.3349 371.834 43.71 372.21C44.0856 372.585 44.2966 373.094 44.2966 373.625C44.2966 374.156 44.0856 374.665 43.71 375.04L43.65 375.1C43.1783 375.582 43.0477 376.303 43.32 376.92V377C43.5791 377.604 44.1724 377.997 44.83 378H45C46.1046 378 47 378.895 47 380C47 381.105 46.1046 382 45 382H44.91C44.2524 382.003 43.6591 382.396 43.4 383Z" stroke="#333333" stroke-width="2" stroke-linecap="round" stroke-linejoin="round"/>
<circle r="24" transform="matrix(1 0 0 -1 36 40)" fill="#007AFF"/>
<path fill-rule="evenodd" clip-rule="evenodd" d="M26.3377 33.0235V39.9302C26.3377 40.0236 26.2819 40.0698 26.1707 40.0698H24.167C24.0558 40.0698 24 40.0236 24 39.9302V28H24.0838L44.7041 46.9769V40.0698C44.718 39.9769 44.7739 39.9302 44.8711 39.9302H46.8748C46.986 39.9419 47.0418 39.9885 47.0418 40.0698V52H46.958L26.3377 33.0235Z" fill="white"/>
<rect x="88" y="645" width="256" height="40" fill="white"/>
<path d="M152.554 670H154.318L150.034 660.2H148.34L144.014 670H145.736L146.674 667.788H151.616L152.554 670ZM147.29 666.318L149.138 661.964L150.986 666.318H147.29ZM160.895 659.612V663.84C160.349 662.972 159.453 662.482 158.249 662.482C156.149 662.482 154.707 664.008 154.707 666.248C154.707 668.516 156.135 670.07 158.277 670.07C159.467 670.07 160.363 669.594 160.895 668.726V670H162.505V659.612H160.895ZM158.613 668.726C157.255 668.726 156.331 667.718 156.317 666.304C156.331 664.876 157.269 663.854 158.613 663.854C159.957 663.854 160.895 664.862 160.895 666.304C160.895 667.718 159.957 668.726 158.613 668.726ZM170.688 659.612V663.84C170.142 662.972 169.246 662.482 168.042 662.482C165.942 662.482 164.5 664.008 164.5 666.248C164.5 668.516 165.928 670.07 168.07 670.07C169.26 670.07 170.156 669.594 170.688 668.726V670H172.298V659.612H170.688ZM168.406 668.726C167.048 668.726 166.124 667.718 166.11 666.304C166.124 664.876 167.062 663.854 168.406 663.854C169.75 663.854 170.688 664.862 170.688 666.304C170.688 667.718 169.75 668.726 168.406 668.726ZM183.444 660.2H179.538V670H181.19V667.046H183.444C185.908 667.046 187.322 665.758 187.322 663.546C187.322 661.418 185.908 660.2 183.444 660.2ZM183.374 665.562H181.19V661.684H183.374C184.886 661.684 185.74 662.3 185.74 663.588C185.74 664.918 184.886 665.562 183.374 665.562ZM195.158 670L195.144 665.114C195.13 663.476 194.052 662.496 192.134 662.496C190.72 662.496 189.964 662.818 188.928 663.434L189.586 664.554C190.328 664.05 191.07 663.798 191.784 663.798C192.96 663.798 193.562 664.358 193.562 665.296V665.52H191.308C189.516 665.534 188.494 666.402 188.494 667.76C188.494 669.076 189.502 670.07 191.112 670.07C192.19 670.07 193.044 669.748 193.576 669.09V670H195.158ZM191.448 668.796C190.552 668.796 190.006 668.362 190.006 667.69C190.006 666.976 190.496 666.696 191.546 666.696H193.562V667.382C193.478 668.194 192.596 668.796 191.448 668.796ZM202.687 662.552V663.756C202.169 662.944 201.315 662.482 200.167 662.496C198.193 662.51 196.863 663.938 196.863 666.038C196.863 668.18 198.207 669.636 200.223 669.636C201.343 669.636 202.183 669.188 202.687 668.376V669.314C202.687 670.602 201.763 671.428 200.349 671.428C199.439 671.428 198.711 671.134 198.011 670.616L197.325 671.778C198.235 672.394 199.257 672.758 200.419 672.758C202.757 672.758 204.283 671.414 204.283 669.272V662.552H202.687ZM200.545 668.376C199.257 668.376 198.389 667.424 198.375 666.08C198.389 664.75 199.271 663.798 200.545 663.798C201.805 663.798 202.687 664.736 202.687 666.08C202.687 667.424 201.805 668.376 200.545 668.376ZM209.834 662.496C207.622 662.51 206.068 664.036 206.068 666.29C206.068 668.53 207.58 670.056 209.876 670.056C211.164 670.056 212.228 669.594 212.956 668.796L212.102 667.886C211.556 668.446 210.814 668.754 210.002 668.754C208.826 668.754 207.944 668.04 207.692 666.892H213.32C213.516 664.204 212.452 662.496 209.834 662.496ZM207.664 665.716C207.832 664.526 208.672 663.784 209.848 663.784C211.066 663.784 211.864 664.512 211.92 665.716H207.664Z" fill="#333333"/>
<path fill-rule="evenodd" clip-rule="evenodd" d="M107 658C107 656.895 107.895 656 109 656H123C124.105 656 125 656.895 125 658V672C125 673.105 124.105 674 123 674H109C107.895 674 107 673.105 107 672V658Z" stroke="#333333" stroke-width="2" stroke-linecap="round" stroke-linejoin="round"/>
<path d="M116 661V669" stroke="#333333" stroke-width="2" stroke-linecap="round" stroke-linejoin="round"/>
<path d="M112 665H120" stroke="#333333" stroke-width="2" stroke-linecap="round" stroke-linejoin="round"/>
<rect x="88" y="636" width="256" height="1" fill="#E5E5E5"/>
<rect x="88" y="588" width="256" height="40" fill="white"/>
<path d="M152.386 605.874L153.352 604.67C152.4 603.732 151.014 603.158 149.628 603.158C146.73 603.158 144.476 605.3 144.476 608.086C144.476 610.9 146.702 613.07 149.572 613.07C150.958 613.07 152.372 612.44 153.366 611.46L152.386 610.368C151.644 611.082 150.636 611.53 149.656 611.53C147.696 611.53 146.156 610.004 146.156 608.072C146.156 606.14 147.696 604.628 149.656 604.628C150.65 604.628 151.672 605.104 152.386 605.874ZM158.189 605.496C155.879 605.496 154.297 607.022 154.297 609.262C154.297 611.516 155.879 613.056 158.189 613.056C160.485 613.056 162.067 611.516 162.067 609.262C162.067 607.022 160.485 605.496 158.189 605.496ZM158.189 606.868C159.519 606.868 160.457 607.862 160.457 609.29C160.457 610.732 159.519 611.712 158.189 611.712C156.845 611.712 155.907 610.732 155.907 609.29C155.907 607.862 156.845 606.868 158.189 606.868ZM168.351 605.496C167.091 605.496 166.139 605.944 165.607 606.98V605.552H163.997V613H165.607V609.038C165.719 607.876 166.489 607.022 167.721 607.008C168.841 607.008 169.513 607.694 169.513 608.814V613H171.123V608.366C171.123 606.588 170.087 605.496 168.351 605.496ZM177.338 611.292C176.904 611.502 176.554 611.614 176.218 611.614C175.714 611.614 175.42 611.376 175.42 610.606V607.036H177.618V605.832H175.42V603.788H173.824V605.832H172.774V607.036H173.824V610.9C173.824 612.426 174.79 613.07 175.91 613.07C176.54 613.07 177.156 612.874 177.744 612.524L177.338 611.292ZM185.529 613L185.515 608.114C185.501 606.476 184.423 605.496 182.505 605.496C181.091 605.496 180.335 605.818 179.299 606.434L179.957 607.554C180.699 607.05 181.441 606.798 182.155 606.798C183.331 606.798 183.933 607.358 183.933 608.296V608.52H181.679C179.887 608.534 178.865 609.402 178.865 610.76C178.865 612.076 179.873 613.07 181.483 613.07C182.561 613.07 183.415 612.748 183.947 612.09V613H185.529ZM181.819 611.796C180.923 611.796 180.377 611.362 180.377 610.69C180.377 609.976 180.867 609.696 181.917 609.696H183.933V610.382C183.849 611.194 182.967 611.796 181.819 611.796ZM193.184 607.75L194.066 606.714C193.38 605.93 192.33 605.496 190.986 605.496C188.774 605.496 187.234 607.036 187.234 609.29C187.234 611.53 188.774 613.056 190.986 613.056C192.4 613.056 193.478 612.552 194.15 611.67L193.254 610.774C192.75 611.362 191.994 611.67 191.056 611.67C189.768 611.67 188.844 610.704 188.844 609.29C188.844 607.876 189.768 606.91 191.056 606.91C191.952 606.896 192.666 607.218 193.184 607.75ZM199.894 611.292C199.46 611.502 199.11 611.614 198.774 611.614C198.27 611.614 197.976 611.376 197.976 610.606V607.036H200.174V605.832H197.976V603.788H196.38V605.832H195.33V607.036H196.38V610.9C196.38 612.426 197.346 613.07 198.466 613.07C199.096 613.07 199.712 612.874 200.3 612.524L199.894 611.292Z" fill="#333333"/>
<path fill-rule="evenodd" clip-rule="evenodd" d="M109 597H119.414L125 602.586V617C125 618.105 124.105 619 123 619H109C107.895 619 107 618.105 107 617V599C107 597.895 107.895 597 109 597ZM117 599H109V617H123V605H119C117.895 605 117 604.105 117 603V599ZM119 599.414V603H122.586L119 599.414Z" fill="#333333"/>
<rect x="88" y="540" width="256" height="40" fill="white"/>
<path d="M149.194 555.2H145.288V565H146.94V562.046H149.194C151.658 562.046 153.072 560.758 153.072 558.546C153.072 556.418 151.658 555.2 149.194 555.2ZM149.124 560.562H146.94V556.684H149.124C150.636 556.684 151.49 557.3 151.49 558.588C151.49 559.918 150.636 560.562 149.124 560.562ZM156.47 559.036V557.552H154.86V565H156.47V561.108C156.596 559.834 157.548 558.952 159.046 559.036V557.496C157.87 557.496 156.974 558.028 156.47 559.036ZM161.418 554.458C160.886 554.458 160.48 554.864 160.48 555.424C160.48 555.97 160.886 556.376 161.418 556.376C161.95 556.376 162.356 555.97 162.356 555.424C162.356 554.864 161.95 554.458 161.418 554.458ZM160.62 557.552V565H162.216V557.552H160.62ZM163.672 557.552L166.556 565H168.222L171.078 557.552H169.468L167.424 563.418L165.352 557.552H163.672ZM178.297 565L178.283 560.114C178.269 558.476 177.191 557.496 175.273 557.496C173.859 557.496 173.103 557.818 172.067 558.434L172.725 559.554C173.467 559.05 174.209 558.798 174.923 558.798C176.099 558.798 176.701 559.358 176.701 560.296V560.52H174.447C172.655 560.534 171.633 561.402 171.633 562.76C171.633 564.076 172.641 565.07 174.251 565.07C175.329 565.07 176.183 564.748 176.715 564.09V565H178.297ZM174.587 563.796C173.691 563.796 173.145 563.362 173.145 562.69C173.145 561.976 173.635 561.696 174.685 561.696H176.701V562.382C176.617 563.194 175.735 563.796 174.587 563.796ZM185.952 559.75L186.834 558.714C186.148 557.93 185.098 557.496 183.754 557.496C181.542 557.496 180.002 559.036 180.002 561.29C180.002 563.53 181.542 565.056 183.754 565.056C185.168 565.056 186.246 564.552 186.918 563.67L186.022 562.774C185.518 563.362 184.762 563.67 183.824 563.67C182.536 563.67 181.612 562.704 181.612 561.29C181.612 559.876 182.536 558.91 183.824 558.91C184.72 558.896 185.434 559.218 185.952 559.75ZM191.78 566.022L195.168 557.552H193.558L191.486 563.194L189.26 557.552H187.594L190.674 564.888L190.422 565.448C190.17 566.008 189.778 566.274 189.288 566.274C188.952 566.274 188.672 566.162 188.322 565.91L187.636 567.156C188.154 567.59 188.686 567.786 189.358 567.786C190.478 567.786 191.318 567.198 191.78 566.022Z" fill="#333333"/>
<path fill-rule="evenodd" clip-rule="evenodd" d="M109 549H119.414L125 554.586V569C125 570.105 124.105 571 123 571H109C107.895 571 107 570.105 107 569V551C107 549.895 107.895 549 109 549ZM117 551H109V569H123V557H119C117.895 557 117 556.105 117 555V551ZM119 551.414V555H122.586L119 551.414Z" fill="#333333"/>
<rect x="88" y="492" width="256" height="40" fill="white"/>
<path d="M144.126 507.2V508.684H147.22V517H148.872V508.684H151.98V507.2H144.126ZM155.629 509.496C153.417 509.51 151.863 511.036 151.863 513.29C151.863 515.53 153.375 517.056 155.671 517.056C156.959 517.056 158.023 516.594 158.751 515.796L157.897 514.886C157.351 515.446 156.609 515.754 155.797 515.754C154.621 515.754 153.739 515.04 153.487 513.892H159.115C159.311 511.204 158.247 509.496 155.629 509.496ZM153.459 512.716C153.627 511.526 154.467 510.784 155.643 510.784C156.861 510.784 157.659 511.512 157.715 512.716H153.459ZM162.654 511.036V509.552H161.044V517H162.654V513.108C162.78 511.834 163.732 510.952 165.23 511.036V509.496C164.054 509.496 163.158 510.028 162.654 511.036ZM176.519 509.496C175.161 509.496 174.167 510.042 173.691 511.288C173.341 510.154 172.431 509.496 171.101 509.496C169.869 509.496 168.917 509.944 168.399 510.994V509.552H166.803V517H168.399V513.318C168.399 512.016 169.183 511.036 170.471 510.994C171.563 510.994 172.221 511.68 172.221 512.814V517H173.831V513.318C173.831 512.016 174.601 511.036 175.875 510.994C176.967 510.994 177.639 511.68 177.639 512.814V517H179.249V512.366C179.249 510.588 178.227 509.496 176.519 509.496ZM185.897 511.428L186.485 510.238C185.813 509.762 184.819 509.482 183.881 509.482C182.453 509.482 181.137 510.126 181.137 511.638C181.123 514.326 185.043 513.472 185.043 514.998C185.043 515.558 184.511 515.796 183.825 515.796C183.013 515.796 181.977 515.446 181.333 514.872L180.759 516.02C181.501 516.692 182.663 517.056 183.755 517.056C185.253 517.056 186.611 516.37 186.611 514.844C186.625 512.142 182.663 512.884 182.663 511.512C182.663 510.98 183.125 510.77 183.755 510.77C184.413 510.77 185.239 511.022 185.897 511.428ZM196.12 509.496C193.81 509.496 192.228 511.022 192.228 513.262C192.228 515.516 193.81 517.056 196.12 517.056C198.416 517.056 199.998 515.516 199.998 513.262C199.998 511.022 198.416 509.496 196.12 509.496ZM196.12 510.868C197.45 510.868 198.388 511.862 198.388 513.29C198.388 514.732 197.45 515.712 196.12 515.712C194.776 515.712 193.838 514.732 193.838 513.29C193.838 511.862 194.776 510.868 196.12 510.868ZM204.772 507.942C205.108 507.942 205.486 508.068 205.794 508.292L206.41 507.06C205.934 506.71 205.332 506.542 204.73 506.542C203.442 506.542 202.168 507.368 202.168 509.104V509.832H201.188V511.036H202.168V517H203.764V511.036H205.71V509.832H203.764V508.95C203.764 508.25 204.226 507.942 204.772 507.942ZM212.91 512.94V507.2H211.258V512.94C211.258 515.502 212.882 517.07 215.528 517.07C218.174 517.07 219.784 515.502 219.784 512.94V507.2H218.132V512.94C218.132 514.606 217.138 515.586 215.542 515.586C213.932 515.586 212.91 514.592 212.91 512.94ZM226.539 511.428L227.127 510.238C226.455 509.762 225.461 509.482 224.523 509.482C223.095 509.482 221.779 510.126 221.779 511.638C221.765 514.326 225.685 513.472 225.685 514.998C225.685 515.558 225.153 515.796 224.467 515.796C223.655 515.796 222.619 515.446 221.975 514.872L221.401 516.02C222.143 516.692 223.305 517.056 224.397 517.056C225.895 517.056 227.253 516.37 227.253 514.844C227.267 512.142 223.305 512.884 223.305 511.512C223.305 510.98 223.767 510.77 224.397 510.77C225.055 510.77 225.881 511.022 226.539 511.428ZM232.19 509.496C229.978 509.51 228.424 511.036 228.424 513.29C228.424 515.53 229.936 517.056 232.232 517.056C233.52 517.056 234.584 516.594 235.312 515.796L234.458 514.886C233.912 515.446 233.17 515.754 232.358 515.754C231.182 515.754 230.3 515.04 230.048 513.892H235.676C235.872 511.204 234.808 509.496 232.19 509.496ZM230.02 512.716C230.188 511.526 231.028 510.784 232.204 510.784C233.422 510.784 234.22 511.512 234.276 512.716H230.02Z" fill="#333333"/>
<path fill-rule="evenodd" clip-rule="evenodd" d="M109 501H119.414L125 506.586V521C125 522.105 124.105 523 123 523H109C107.895 523 107 522.105 107 521V503C107 501.895 107.895 501 109 501ZM117 503H109V521H123V509H119C117.895 509 117 508.105 117 507V503ZM119 503.414V507H122.586L119 503.414Z" fill="#333333"/>
<rect x="88" y="444" width="256" height="40" fill="white"/>
<path d="M145.288 459.2V469H146.94V464.982H151.392V463.512H146.94V460.684H151.854L151.868 459.2H145.288ZM160.46 469H162.224L157.94 459.2H156.246L151.92 469H153.642L154.58 466.788H159.522L160.46 469ZM155.196 465.318L157.044 460.964L158.892 465.318H155.196ZM173.026 468.916C172.382 469.42 171.738 469.728 171.22 469.728C170.66 469.728 170.114 469.392 169.582 468.818C171.668 468.174 173.11 466.34 173.11 464.1C173.11 461.3 170.842 459.158 167.916 459.158C164.99 459.158 162.722 461.286 162.722 464.1C162.722 466.9 164.976 469.056 167.902 469.07C168.686 470.386 169.792 471.156 171.024 471.156C171.934 471.156 172.928 470.75 173.684 470.078L173.026 468.916ZM164.402 464.1C164.402 462.154 165.998 460.642 167.93 460.642C169.848 460.642 171.416 462.154 171.416 464.1C171.416 466.046 169.848 467.586 167.93 467.586C166.012 467.586 164.402 466.046 164.402 464.1Z" fill="#333333"/>
<path fill-rule="evenodd" clip-rule="evenodd" d="M109 453H119.414L125 458.586V473C125 474.105 124.105 475 123 475H109C107.895 475 107 474.105 107 473V455C107 453.895 107.895 453 109 453ZM117 455H109V473H123V461H119C117.895 461 117 460.105 117 459V455ZM119 455.414V459H122.586L119 455.414Z" fill="#333333"/>
<rect x="88" y="396" width="256" height="40" fill="white"/>
<path d="M152.554 421H154.318L150.034 411.2H148.34L144.014 421H145.736L146.674 418.788H151.616L152.554 421ZM147.29 417.318L149.138 412.964L150.986 417.318H147.29ZM160.06 413.496C158.898 413.496 158.002 413.972 157.456 414.84V410.612H155.846V421H157.456V419.712C158.002 420.58 158.898 421.056 160.088 421.056C162.216 421.056 163.616 419.53 163.616 417.304C163.616 415.036 162.174 413.496 160.06 413.496ZM159.724 419.684C158.394 419.684 157.456 418.69 157.456 417.248C157.456 415.848 158.394 414.84 159.724 414.84C161.054 414.84 161.992 415.862 161.992 417.248C161.992 418.676 161.054 419.684 159.724 419.684ZM168.734 413.496C166.424 413.496 164.842 415.022 164.842 417.262C164.842 419.516 166.424 421.056 168.734 421.056C171.03 421.056 172.612 419.516 172.612 417.262C172.612 415.022 171.03 413.496 168.734 413.496ZM168.734 414.868C170.064 414.868 171.002 415.862 171.002 417.29C171.002 418.732 170.064 419.712 168.734 419.712C167.39 419.712 166.452 418.732 166.452 417.29C166.452 415.862 167.39 414.868 168.734 414.868ZM179.694 413.552V417.22C179.694 418.522 178.938 419.516 177.65 419.544C176.572 419.544 175.914 418.858 175.914 417.738V413.552H174.304V418.186C174.304 419.964 175.326 421.056 177.034 421.056C178.252 421.042 179.19 420.58 179.694 419.544V421H181.304V413.552H179.694ZM187.746 419.292C187.312 419.502 186.962 419.614 186.626 419.614C186.122 419.614 185.828 419.376 185.828 418.606V415.036H188.026V413.832H185.828V411.788H184.232V413.832H183.182V415.036H184.232V418.9C184.232 420.426 185.198 421.07 186.318 421.07C186.948 421.07 187.564 420.874 188.152 420.524L187.746 419.292ZM195.89 416.94V411.2H194.238V416.94C194.238 419.502 195.862 421.07 198.508 421.07C201.154 421.07 202.764 419.502 202.764 416.94V411.2H201.112V416.94C201.112 418.606 200.118 419.586 198.522 419.586C196.912 419.586 195.89 418.592 195.89 416.94ZM209.52 415.428L210.108 414.238C209.436 413.762 208.442 413.482 207.504 413.482C206.076 413.482 204.76 414.126 204.76 415.638C204.746 418.326 208.666 417.472 208.666 418.998C208.666 419.558 208.134 419.796 207.448 419.796C206.636 419.796 205.6 419.446 204.956 418.872L204.382 420.02C205.124 420.692 206.286 421.056 207.378 421.056C208.876 421.056 210.234 420.37 210.234 418.844C210.248 416.142 206.286 416.884 206.286 415.512C206.286 414.98 206.748 414.77 207.378 414.77C208.036 414.77 208.862 415.022 209.52 415.428Z" fill="#333333"/>
<path fill-rule="evenodd" clip-rule="evenodd" d="M109 405H119.414L125 410.586V425C125 426.105 124.105 427 123 427H109C107.895 427 107 426.105 107 425V407C107 405.895 107.895 405 109 405ZM117 407H109V425H123V413H119C117.895 413 117 412.105 117 411V407ZM119 407.414V411H122.586L119 407.414Z" fill="#333333"/>
<rect x="88" y="348" width="256" height="40" fill="white"/>
<path d="M145.288 363.2V373H146.94V368.94H152.134V373H153.786V363.2H152.134V367.456H146.94V363.2H145.288ZM159.706 365.496C157.396 365.496 155.814 367.022 155.814 369.262C155.814 371.516 157.396 373.056 159.706 373.056C162.002 373.056 163.584 371.516 163.584 369.262C163.584 367.022 162.002 365.496 159.706 365.496ZM159.706 366.868C161.036 366.868 161.974 367.862 161.974 369.29C161.974 370.732 161.036 371.712 159.706 371.712C158.362 371.712 157.424 370.732 157.424 369.29C157.424 367.862 158.362 366.868 159.706 366.868ZM175.23 365.496C173.872 365.496 172.878 366.042 172.402 367.288C172.052 366.154 171.142 365.496 169.812 365.496C168.58 365.496 167.628 365.944 167.11 366.994V365.552H165.514V373H167.11V369.318C167.11 368.016 167.894 367.036 169.182 366.994C170.274 366.994 170.932 367.68 170.932 368.814V373H172.542V369.318C172.542 368.016 173.312 367.036 174.586 366.994C175.678 366.994 176.35 367.68 176.35 368.814V373H177.96V368.366C177.96 366.588 176.938 365.496 175.23 365.496ZM183.432 365.496C181.22 365.51 179.666 367.036 179.666 369.29C179.666 371.53 181.178 373.056 183.474 373.056C184.762 373.056 185.826 372.594 186.554 371.796L185.7 370.886C185.154 371.446 184.412 371.754 183.6 371.754C182.424 371.754 181.542 371.04 181.29 369.892H186.918C187.114 367.204 186.05 365.496 183.432 365.496ZM181.262 368.716C181.43 367.526 182.27 366.784 183.446 366.784C184.664 366.784 185.462 367.512 185.518 368.716H181.262ZM197.298 363.2H193.392V373H195.044V370.046H197.298C199.762 370.046 201.176 368.758 201.176 366.546C201.176 364.418 199.762 363.2 197.298 363.2ZM197.228 368.562H195.044V364.684H197.228C198.74 364.684 199.594 365.3 199.594 366.588C199.594 367.918 198.74 368.562 197.228 368.562ZM209.011 373L208.997 368.114C208.983 366.476 207.905 365.496 205.987 365.496C204.573 365.496 203.817 365.818 202.781 366.434L203.439 367.554C204.181 367.05 204.923 366.798 205.637 366.798C206.813 366.798 207.415 367.358 207.415 368.296V368.52H205.161C203.369 368.534 202.347 369.402 202.347 370.76C202.347 372.076 203.355 373.07 204.965 373.07C206.043 373.07 206.897 372.748 207.429 372.09V373H209.011ZM205.301 371.796C204.405 371.796 203.859 371.362 203.859 370.69C203.859 369.976 204.349 369.696 205.399 369.696H207.415V370.382C207.331 371.194 206.449 371.796 205.301 371.796ZM216.541 365.552V366.756C216.023 365.944 215.169 365.482 214.021 365.496C212.047 365.51 210.717 366.938 210.717 369.038C210.717 371.18 212.061 372.636 214.077 372.636C215.197 372.636 216.037 372.188 216.541 371.376V372.314C216.541 373.602 215.617 374.428 214.203 374.428C213.293 374.428 212.565 374.134 211.865 373.616L211.179 374.778C212.089 375.394 213.111 375.758 214.273 375.758C216.611 375.758 218.137 374.414 218.137 372.272V365.552H216.541ZM214.399 371.376C213.111 371.376 212.243 370.424 212.229 369.08C212.243 367.75 213.125 366.798 214.399 366.798C215.659 366.798 216.541 367.736 216.541 369.08C216.541 370.424 215.659 371.376 214.399 371.376ZM223.688 365.496C221.476 365.51 219.922 367.036 219.922 369.29C219.922 371.53 221.434 373.056 223.73 373.056C225.018 373.056 226.082 372.594 226.81 371.796L225.956 370.886C225.41 371.446 224.668 371.754 223.856 371.754C222.68 371.754 221.798 371.04 221.546 369.892H227.174C227.37 367.204 226.306 365.496 223.688 365.496ZM221.518 368.716C221.686 367.526 222.526 366.784 223.702 366.784C224.92 366.784 225.718 367.512 225.774 368.716H221.518Z" fill="#333333"/>
<path fill-rule="evenodd" clip-rule="evenodd" d="M109 357H119.414L125 362.586V377C125 378.105 124.105 379 123 379H109C107.895 379 107 378.105 107 377V359C107 357.895 107.895 357 109 357ZM117 359H109V377H123V365H119C117.895 365 117 364.105 117 363V359ZM119 359.414V363H122.586L119 359.414Z" fill="#333333"/>
<path d="M109.194 325.2H105.288V335H106.94V332.046H109.194C111.658 332.046 113.072 330.758 113.072 328.546C113.072 326.418 111.658 325.2 109.194 325.2ZM109.124 330.562H106.94V326.684H109.124C110.636 326.684 111.49 327.3 111.49 328.588C111.49 329.918 110.636 330.562 109.124 330.562ZM120.908 335L120.894 330.114C120.88 328.476 119.802 327.496 117.884 327.496C116.47 327.496 115.714 327.818 114.678 328.434L115.336 329.554C116.078 329.05 116.82 328.798 117.534 328.798C118.71 328.798 119.312 329.358 119.312 330.296V330.52H117.058C115.266 330.534 114.244 331.402 114.244 332.76C114.244 334.076 115.252 335.07 116.862 335.07C117.94 335.07 118.794 334.748 119.326 334.09V335H120.908ZM117.198 333.796C116.302 333.796 115.756 333.362 115.756 332.69C115.756 331.976 116.246 331.696 117.296 331.696H119.312V332.382C119.228 333.194 118.346 333.796 117.198 333.796ZM128.437 327.552V328.756C127.919 327.944 127.065 327.482 125.917 327.496C123.943 327.51 122.613 328.938 122.613 331.038C122.613 333.18 123.957 334.636 125.973 334.636C127.093 334.636 127.933 334.188 128.437 333.376V334.314C128.437 335.602 127.513 336.428 126.099 336.428C125.189 336.428 124.461 336.134 123.761 335.616L123.075 336.778C123.985 337.394 125.007 337.758 126.169 337.758C128.507 337.758 130.033 336.414 130.033 334.272V327.552H128.437ZM126.295 333.376C125.007 333.376 124.139 332.424 124.125 331.08C124.139 329.75 125.021 328.798 126.295 328.798C127.555 328.798 128.437 329.736 128.437 331.08C128.437 332.424 127.555 333.376 126.295 333.376ZM135.584 327.496C133.372 327.51 131.818 329.036 131.818 331.29C131.818 333.53 133.33 335.056 135.626 335.056C136.914 335.056 137.978 334.594 138.706 333.796L137.852 332.886C137.306 333.446 136.564 333.754 135.752 333.754C134.576 333.754 133.694 333.04 133.442 331.892H139.07C139.266 329.204 138.202 327.496 135.584 327.496ZM133.414 330.716C133.582 329.526 134.422 328.784 135.598 328.784C136.816 328.784 137.614 329.512 137.67 330.716H133.414ZM145.241 329.428L145.829 328.238C145.157 327.762 144.163 327.482 143.225 327.482C141.797 327.482 140.481 328.126 140.481 329.638C140.467 332.326 144.387 331.472 144.387 332.998C144.387 333.558 143.855 333.796 143.169 333.796C142.357 333.796 141.321 333.446 140.677 332.872L140.103 334.02C140.845 334.692 142.007 335.056 143.099 335.056C144.597 335.056 145.955 334.37 145.955 332.844C145.969 330.142 142.007 330.884 142.007 329.512C142.007 328.98 142.469 328.77 143.099 328.77C143.757 328.77 144.583 329.022 145.241 329.428Z" fill="#9C9C9C"/>
<rect x="88" y="198" width="256" height="40" fill="white"/>
<path d="M146.744 218.94V213.2H145.092V218.94C145.092 221.502 146.716 223.07 149.362 223.07C152.008 223.07 153.618 221.502 153.618 218.94V213.2H151.966V218.94C151.966 220.606 150.972 221.586 149.376 221.586C147.766 221.586 146.744 220.592 146.744 218.94ZM160.373 217.428L160.961 216.238C160.289 215.762 159.295 215.482 158.357 215.482C156.929 215.482 155.613 216.126 155.613 217.638C155.599 220.326 159.519 219.472 159.519 220.998C159.519 221.558 158.987 221.796 158.301 221.796C157.489 221.796 156.453 221.446 155.809 220.872L155.235 222.02C155.977 222.692 157.139 223.056 158.231 223.056C159.729 223.056 161.087 222.37 161.087 220.844C161.101 218.142 157.139 218.884 157.139 217.512C157.139 216.98 157.601 216.77 158.231 216.77C158.889 216.77 159.715 217.022 160.373 217.428ZM166.024 215.496C163.812 215.51 162.258 217.036 162.258 219.29C162.258 221.53 163.77 223.056 166.066 223.056C167.354 223.056 168.418 222.594 169.146 221.796L168.292 220.886C167.746 221.446 167.004 221.754 166.192 221.754C165.016 221.754 164.134 221.04 163.882 219.892H169.51C169.706 217.204 168.642 215.496 166.024 215.496ZM163.854 218.716C164.022 217.526 164.862 216.784 166.038 216.784C167.256 216.784 168.054 217.512 168.11 218.716H163.854ZM173.048 217.036V215.552H171.438V223H173.048V219.108C173.174 217.834 174.126 216.952 175.624 217.036V215.496C174.448 215.496 173.552 216.028 173.048 217.036ZM181.44 217.428L182.028 216.238C181.356 215.762 180.362 215.482 179.424 215.482C177.996 215.482 176.68 216.126 176.68 217.638C176.666 220.326 180.586 219.472 180.586 220.998C180.586 221.558 180.054 221.796 179.368 221.796C178.556 221.796 177.52 221.446 176.876 220.872L176.302 222.02C177.044 222.692 178.206 223.056 179.298 223.056C180.796 223.056 182.154 222.37 182.154 220.844C182.168 218.142 178.206 218.884 178.206 217.512C178.206 216.98 178.668 216.77 179.298 216.77C179.956 216.77 180.782 217.022 181.44 217.428Z" fill="#333333"/>
<path fill-rule="evenodd" clip-rule="evenodd" d="M116 229C109.925 229 105 224.075 105 218C105 211.925 109.925 207 116 207C122.075 207 127 211.925 127 218C127 224.075 122.075 229 116 229ZM123.399 223.125C124.409 221.67 125 219.904 125 218C125 213.029 120.971 209 116 209C111.029 209 107 213.029 107 218C107 219.904 107.591 221.67 108.601 223.125C109.726 221.638 112.371 221 116 221C119.629 221 122.274 221.638 123.399 223.125ZM121.965 224.74C121.672 223.687 119.569 223 116 223C112.431 223 110.328 223.687 110.035 224.74C111.623 226.146 113.712 227 116 227C118.288 227 120.377 226.146 121.965 224.74ZM116 221C113.761 221 112 219.427 112 216C112 213.756 113.579 212 116 212C118.414 212 120 213.922 120 216.2C120 219.48 118.218 221 116 221ZM114 216C114 218.269 114.818 219 116 219C117.178 219 118 218.298 118 216.2C118 214.95 117.216 214 116 214C114.734 214 114 214.816 114 216Z" fill="#333333"/>
<rect x="88" y="150" width="256" height="40" fill="#EFF7FF"/>
<path d="M146.744 170.94V165.2H145.092V170.94C145.092 173.502 146.716 175.07 149.362 175.07C152.008 175.07 153.618 173.502 153.618 170.94V165.2H151.966V170.94C151.966 172.606 150.972 173.586 149.376 173.586C147.766 173.586 146.744 172.592 146.744 170.94ZM160.373 169.428L160.961 168.238C160.289 167.762 159.295 167.482 158.357 167.482C156.929 167.482 155.613 168.126 155.613 169.638C155.599 172.326 159.519 171.472 159.519 172.998C159.519 173.558 158.987 173.796 158.301 173.796C157.489 173.796 156.453 173.446 155.809 172.872L155.235 174.02C155.977 174.692 157.139 175.056 158.231 175.056C159.729 175.056 161.087 174.37 161.087 172.844C161.101 170.142 157.139 170.884 157.139 169.512C157.139 168.98 157.601 168.77 158.231 168.77C158.889 168.77 159.715 169.022 160.373 169.428ZM166.024 167.496C163.812 167.51 162.258 169.036 162.258 171.29C162.258 173.53 163.77 175.056 166.066 175.056C167.354 175.056 168.418 174.594 169.146 173.796L168.292 172.886C167.746 173.446 167.004 173.754 166.192 173.754C165.016 173.754 164.134 173.04 163.882 171.892H169.51C169.706 169.204 168.642 167.496 166.024 167.496ZM163.854 170.716C164.022 169.526 164.862 168.784 166.038 168.784C167.256 168.784 168.054 169.512 168.11 170.716H163.854ZM173.048 169.036V167.552H171.438V175H173.048V171.108C173.174 169.834 174.126 168.952 175.624 169.036V167.496C174.448 167.496 173.552 168.028 173.048 169.036ZM181.44 169.428L182.028 168.238C181.356 167.762 180.362 167.482 179.424 167.482C177.996 167.482 176.68 168.126 176.68 169.638C176.666 172.326 180.586 171.472 180.586 172.998C180.586 173.558 180.054 173.796 179.368 173.796C178.556 173.796 177.52 173.446 176.876 172.872L176.302 174.02C177.044 174.692 178.206 175.056 179.298 175.056C180.796 175.056 182.154 174.37 182.154 172.844C182.168 170.142 178.206 170.884 178.206 169.512C178.206 168.98 178.668 168.77 179.298 168.77C179.956 168.77 180.782 169.022 181.44 169.428Z" fill="#007AFF"/>
<path fill-rule="evenodd" clip-rule="evenodd" d="M116 181C109.925 181 105 176.075 105 170C105 163.925 109.925 159 116 159C122.075 159 127 163.925 127 170C127 176.075 122.075 181 116 181ZM123.399 175.125C124.409 173.67 125 171.904 125 170C125 165.029 120.971 161 116 161C111.029 161 107 165.029 107 170C107 171.904 107.591 173.67 108.601 175.125C109.726 173.638 112.371 173 116 173C119.629 173 122.274 173.638 123.399 175.125ZM121.965 176.74C121.672 175.687 119.569 175 116 175C112.431 175 110.328 175.687 110.035 176.74C111.623 178.146 113.712 179 116 179C118.288 179 120.377 178.146 121.965 176.74ZM116 173C113.761 173 112 171.427 112 168C112 165.756 113.579 164 116 164C118.414 164 120 165.922 120 168.2C120 171.48 118.218 173 116 173ZM114 168C114 170.269 114.818 171 116 171C117.178 171 118 170.298 118 168.2C118 166.95 117.216 166 116 166C114.734 166 114 166.816 114 168Z" fill="#007AFF"/>
<path d="M88 246H344V286H88V246Z" fill="#F5F5F5"/>
<path d="M146.744 266.94V261.2H145.092V266.94C145.092 269.502 146.716 271.07 149.362 271.07C152.008 271.07 153.618 269.502 153.618 266.94V261.2H151.966V266.94C151.966 268.606 150.972 269.586 149.376 269.586C147.766 269.586 146.744 268.592 146.744 266.94ZM160.373 265.428L160.961 264.238C160.289 263.762 159.295 263.482 158.357 263.482C156.929 263.482 155.613 264.126 155.613 265.638C155.599 268.326 159.519 267.472 159.519 268.998C159.519 269.558 158.987 269.796 158.301 269.796C157.489 269.796 156.453 269.446 155.809 268.872L155.235 270.02C155.977 270.692 157.139 271.056 158.231 271.056C159.729 271.056 161.087 270.37 161.087 268.844C161.101 266.142 157.139 266.884 157.139 265.512C157.139 264.98 157.601 264.77 158.231 264.77C158.889 264.77 159.715 265.022 160.373 265.428ZM166.024 263.496C163.812 263.51 162.258 265.036 162.258 267.29C162.258 269.53 163.77 271.056 166.066 271.056C167.354 271.056 168.418 270.594 169.146 269.796L168.292 268.886C167.746 269.446 167.004 269.754 166.192 269.754C165.016 269.754 164.134 269.04 163.882 267.892H169.51C169.706 265.204 168.642 263.496 166.024 263.496ZM163.854 266.716C164.022 265.526 164.862 264.784 166.038 264.784C167.256 264.784 168.054 265.512 168.11 266.716H163.854ZM173.048 265.036V263.552H171.438V271H173.048V267.108C173.174 265.834 174.126 264.952 175.624 265.036V263.496C174.448 263.496 173.552 264.028 173.048 265.036ZM181.44 265.428L182.028 264.238C181.356 263.762 180.362 263.482 179.424 263.482C177.996 263.482 176.68 264.126 176.68 265.638C176.666 268.326 180.586 267.472 180.586 268.998C180.586 269.558 180.054 269.796 179.368 269.796C178.556 269.796 177.52 269.446 176.876 268.872L176.302 270.02C177.044 270.692 178.206 271.056 179.298 271.056C180.796 271.056 182.154 270.37 182.154 268.844C182.168 266.142 178.206 266.884 178.206 265.512C178.206 264.98 178.668 264.77 179.298 264.77C179.956 264.77 180.782 265.022 181.44 265.428Z" fill="#333333"/>
<path fill-rule="evenodd" clip-rule="evenodd" d="M116 277C109.925 277 105 272.075 105 266C105 259.925 109.925 255 116 255C122.075 255 127 259.925 127 266C127 272.075 122.075 277 116 277ZM123.399 271.125C124.409 269.67 125 267.904 125 266C125 261.029 120.971 257 116 257C111.029 257 107 261.029 107 266C107 267.904 107.591 269.67 108.601 271.125C109.726 269.638 112.371 269 116 269C119.629 269 122.274 269.638 123.399 271.125ZM121.965 272.74C121.672 271.687 119.569 271 116 271C112.431 271 110.328 271.687 110.035 272.74C111.623 274.146 113.712 275 116 275C118.288 275 120.377 274.146 121.965 272.74ZM116 269C113.761 269 112 267.427 112 264C112 261.756 113.579 260 116 260C118.414 260 120 261.922 120 264.2C120 267.48 118.218 269 116 269ZM114 264C114 266.269 114.818 267 116 267C117.178 267 118 266.298 118 264.2C118 262.95 117.216 262 116 262C114.734 262 114 262.816 114 264Z" fill="#333333"/>
<rect x="88" y="102" width="256" height="40" fill="white"/>
<path d="M146.744 122.94V117.2H145.092V122.94C145.092 125.502 146.716 127.07 149.362 127.07C152.008 127.07 153.618 125.502 153.618 122.94V117.2H151.966V122.94C151.966 124.606 150.972 125.586 149.376 125.586C147.766 125.586 146.744 124.592 146.744 122.94ZM160.373 121.428L160.961 120.238C160.289 119.762 159.295 119.482 158.357 119.482C156.929 119.482 155.613 120.126 155.613 121.638C155.599 124.326 159.519 123.472 159.519 124.998C159.519 125.558 158.987 125.796 158.301 125.796C157.489 125.796 156.453 125.446 155.809 124.872L155.235 126.02C155.977 126.692 157.139 127.056 158.231 127.056C159.729 127.056 161.087 126.37 161.087 124.844C161.101 122.142 157.139 122.884 157.139 121.512C157.139 120.98 157.601 120.77 158.231 120.77C158.889 120.77 159.715 121.022 160.373 121.428ZM166.024 119.496C163.812 119.51 162.258 121.036 162.258 123.29C162.258 125.53 163.77 127.056 166.066 127.056C167.354 127.056 168.418 126.594 169.146 125.796L168.292 124.886C167.746 125.446 167.004 125.754 166.192 125.754C165.016 125.754 164.134 125.04 163.882 123.892H169.51C169.706 121.204 168.642 119.496 166.024 119.496ZM163.854 122.716C164.022 121.526 164.862 120.784 166.038 120.784C167.256 120.784 168.054 121.512 168.11 122.716H163.854ZM173.048 121.036V119.552H171.438V127H173.048V123.108C173.174 121.834 174.126 120.952 175.624 121.036V119.496C174.448 119.496 173.552 120.028 173.048 121.036ZM181.44 121.428L182.028 120.238C181.356 119.762 180.362 119.482 179.424 119.482C177.996 119.482 176.68 120.126 176.68 121.638C176.666 124.326 180.586 123.472 180.586 124.998C180.586 125.558 180.054 125.796 179.368 125.796C178.556 125.796 177.52 125.446 176.876 124.872L176.302 126.02C177.044 126.692 178.206 127.056 179.298 127.056C180.796 127.056 182.154 126.37 182.154 124.844C182.168 122.142 178.206 122.884 178.206 121.512C178.206 120.98 178.668 120.77 179.298 120.77C179.956 120.77 180.782 121.022 181.44 121.428Z" fill="#333333"/>
<path fill-rule="evenodd" clip-rule="evenodd" d="M116 133C109.925 133 105 128.075 105 122C105 115.925 109.925 111 116 111C122.075 111 127 115.925 127 122C127 128.075 122.075 133 116 133ZM123.399 127.125C124.409 125.67 125 123.904 125 122C125 117.029 120.971 113 116 113C111.029 113 107 117.029 107 122C107 123.904 107.591 125.67 108.601 127.125C109.726 125.638 112.371 125 116 125C119.629 125 122.274 125.638 123.399 127.125ZM121.965 128.74C121.672 127.687 119.569 127 116 127C112.431 127 110.328 127.687 110.035 128.74C111.623 130.146 113.712 131 116 131C118.288 131 120.377 130.146 121.965 128.74ZM116 125C113.761 125 112 123.427 112 120C112 117.756 113.579 116 116 116C118.414 116 120 117.922 120 120.2C120 123.48 118.218 125 116 125ZM114 120C114 122.269 114.818 123 116 123C117.178 123 118 122.298 118 120.2C118 118.95 117.216 118 116 118C114.734 118 114 118.816 114 120Z" fill="#333333"/>
<path d="M109.306 79.2H105.288V89H109.264C112.232 89 114.374 86.928 114.374 84.1C114.374 81.258 112.246 79.2 109.306 79.2ZM109.348 87.516H106.94V80.684H109.278C111.21 80.684 112.708 82.112 112.708 84.114C112.708 86.102 111.252 87.516 109.348 87.516ZM117.093 78.458C116.561 78.458 116.155 78.864 116.155 79.424C116.155 79.97 116.561 80.376 117.093 80.376C117.625 80.376 118.031 79.97 118.031 79.424C118.031 78.864 117.625 78.458 117.093 78.458ZM116.295 81.552V89H117.891V81.552H116.295ZM122.134 83.036V81.552H120.524V89H122.134V85.108C122.26 83.834 123.212 82.952 124.71 83.036V81.496C123.534 81.496 122.638 82.028 122.134 83.036ZM129.35 81.496C127.138 81.51 125.584 83.036 125.584 85.29C125.584 87.53 127.096 89.056 129.392 89.056C130.68 89.056 131.744 88.594 132.472 87.796L131.618 86.886C131.072 87.446 130.33 87.754 129.518 87.754C128.342 87.754 127.46 87.04 127.208 85.892H132.836C133.032 83.204 131.968 81.496 129.35 81.496ZM127.18 84.716C127.348 83.526 128.188 82.784 129.364 82.784C130.582 82.784 131.38 83.512 131.436 84.716H127.18ZM140.014 83.75L140.896 82.714C140.21 81.93 139.16 81.496 137.816 81.496C135.604 81.496 134.064 83.036 134.064 85.29C134.064 87.53 135.604 89.056 137.816 89.056C139.23 89.056 140.308 88.552 140.98 87.67L140.084 86.774C139.58 87.362 138.824 87.67 137.886 87.67C136.598 87.67 135.674 86.704 135.674 85.29C135.674 83.876 136.598 82.91 137.886 82.91C138.782 82.896 139.496 83.218 140.014 83.75ZM146.725 87.292C146.291 87.502 145.941 87.614 145.605 87.614C145.101 87.614 144.807 87.376 144.807 86.606V83.036H147.005V81.832H144.807V79.788H143.211V81.832H142.161V83.036H143.211V86.9C143.211 88.426 144.177 89.07 145.297 89.07C145.927 89.07 146.543 88.874 147.131 88.524L146.725 87.292ZM151.978 81.496C149.668 81.496 148.086 83.022 148.086 85.262C148.086 87.516 149.668 89.056 151.978 89.056C154.274 89.056 155.856 87.516 155.856 85.262C155.856 83.022 154.274 81.496 151.978 81.496ZM151.978 82.868C153.308 82.868 154.246 83.862 154.246 85.29C154.246 86.732 153.308 87.712 151.978 87.712C150.634 87.712 149.696 86.732 149.696 85.29C149.696 83.862 150.634 82.868 151.978 82.868ZM159.396 83.036V81.552H157.786V89H159.396V85.108C159.522 83.834 160.474 82.952 161.972 83.036V81.496C160.796 81.496 159.9 82.028 159.396 83.036ZM164.343 78.458C163.811 78.458 163.405 78.864 163.405 79.424C163.405 79.97 163.811 80.376 164.343 80.376C164.875 80.376 165.281 79.97 165.281 79.424C165.281 78.864 164.875 78.458 164.343 78.458ZM163.545 81.552V89H165.141V81.552H163.545ZM170.84 81.496C168.628 81.51 167.074 83.036 167.074 85.29C167.074 87.53 168.586 89.056 170.882 89.056C172.17 89.056 173.234 88.594 173.962 87.796L173.108 86.886C172.562 87.446 171.82 87.754 171.008 87.754C169.832 87.754 168.95 87.04 168.698 85.892H174.326C174.522 83.204 173.458 81.496 170.84 81.496ZM168.67 84.716C168.838 83.526 169.678 82.784 170.854 82.784C172.072 82.784 172.87 83.512 172.926 84.716H168.67ZM180.496 83.428L181.084 82.238C180.412 81.762 179.418 81.482 178.48 81.482C177.052 81.482 175.736 82.126 175.736 83.638C175.722 86.326 179.642 85.472 179.642 86.998C179.642 87.558 179.11 87.796 178.424 87.796C177.612 87.796 176.576 87.446 175.932 86.872L175.358 88.02C176.1 88.692 177.262 89.056 178.354 89.056C179.852 89.056 181.21 88.37 181.21 86.844C181.224 84.142 177.262 84.884 177.262 83.512C177.262 82.98 177.724 82.77 178.354 82.77C179.012 82.77 179.838 83.022 180.496 83.428Z" fill="#9C9C9C"/>
<path d="M112.288 37.536L113.072 35.872C112.032 35.184 110.608 34.72 109.152 34.72C106.72 34.72 105.072 35.92 105.072 37.84C105.072 41.824 111.12 40.432 111.12 42.928C111.12 43.792 110.336 44.288 109.024 44.288C107.824 44.288 106.384 43.712 105.232 42.656L104.416 44.288C105.568 45.344 107.232 46.064 108.992 46.064C111.456 46.064 113.216 44.832 113.216 42.832C113.232 38.8 107.184 40.112 107.184 37.664C107.184 36.912 107.904 36.496 109.008 36.496C109.856 36.496 111.072 36.8 112.288 37.536ZM116.665 33.952C116.057 33.952 115.593 34.416 115.593 35.056C115.593 35.68 116.057 36.144 116.665 36.144C117.273 36.144 117.737 35.68 117.737 35.056C117.737 34.416 117.273 33.952 116.665 33.952ZM115.753 37.488V46H117.577V37.488H115.753ZM125.092 44.048C124.596 44.288 124.196 44.416 123.812 44.416C123.236 44.416 122.9 44.144 122.9 43.264V39.184H125.412V37.808H122.9V35.472H121.076V37.808H119.876V39.184H121.076V43.6C121.076 45.344 122.18 46.08 123.46 46.08C124.18 46.08 124.884 45.856 125.556 45.456L125.092 44.048ZM131.106 37.424C128.578 37.44 126.802 39.184 126.802 41.76C126.802 44.32 128.53 46.064 131.154 46.064C132.626 46.064 133.842 45.536 134.674 44.624L133.698 43.584C133.074 44.224 132.226 44.576 131.298 44.576C129.954 44.576 128.946 43.76 128.658 42.448H135.09C135.314 39.376 134.098 37.424 131.106 37.424ZM128.626 41.104C128.818 39.744 129.778 38.896 131.122 38.896C132.514 38.896 133.426 39.728 133.49 41.104H128.626ZM142.797 34.8V46H144.573V37.632L148.109 44.832H149.341L152.877 37.632L152.893 46H154.637V34.8H152.413L148.733 42.24L145.037 34.8H142.797ZM164.834 46L164.818 40.416C164.802 38.544 163.57 37.424 161.378 37.424C159.762 37.424 158.898 37.792 157.714 38.496L158.466 39.776C159.314 39.2 160.162 38.912 160.978 38.912C162.322 38.912 163.01 39.552 163.01 40.624V40.88H160.434C158.386 40.896 157.218 41.888 157.218 43.44C157.218 44.944 158.37 46.08 160.21 46.08C161.442 46.08 162.418 45.712 163.026 44.96V46H164.834ZM160.594 44.624C159.57 44.624 158.946 44.128 158.946 43.36C158.946 42.544 159.506 42.224 160.706 42.224H163.01V43.008C162.914 43.936 161.906 44.624 160.594 44.624ZM172.713 37.424C171.273 37.424 170.185 37.936 169.577 39.12V37.488H167.737V46H169.577V41.472C169.705 40.144 170.585 39.168 171.993 39.152C173.273 39.152 174.041 39.936 174.041 41.216V46H175.881V40.704C175.881 38.672 174.697 37.424 172.713 37.424ZM185.698 46L185.682 40.416C185.666 38.544 184.434 37.424 182.242 37.424C180.626 37.424 179.762 37.792 178.578 38.496L179.33 39.776C180.178 39.2 181.026 38.912 181.842 38.912C183.186 38.912 183.874 39.552 183.874 40.624V40.88H181.298C179.25 40.896 178.082 41.888 178.082 43.44C178.082 44.944 179.234 46.08 181.074 46.08C182.306 46.08 183.282 45.712 183.89 44.96V46H185.698ZM181.458 44.624C180.434 44.624 179.81 44.128 179.81 43.36C179.81 42.544 180.37 42.224 181.57 42.224H183.874V43.008C183.778 43.936 182.77 44.624 181.458 44.624ZM194.457 37.488V38.864C193.865 37.936 192.889 37.408 191.577 37.424C189.321 37.44 187.801 39.072 187.801 41.472C187.801 43.92 189.337 45.584 191.641 45.584C192.921 45.584 193.881 45.072 194.457 44.144V45.216C194.457 46.688 193.401 47.632 191.785 47.632C190.745 47.632 189.913 47.296 189.113 46.704L188.329 48.032C189.369 48.736 190.537 49.152 191.865 49.152C194.537 49.152 196.281 47.616 196.281 45.168V37.488H194.457ZM192.009 44.144C190.537 44.144 189.545 43.056 189.529 41.52C189.545 40 190.553 38.912 192.009 38.912C193.449 38.912 194.457 39.984 194.457 41.52C194.457 43.056 193.449 44.144 192.009 44.144ZM202.78 37.424C200.252 37.44 198.476 39.184 198.476 41.76C198.476 44.32 200.204 46.064 202.828 46.064C204.3 46.064 205.516 45.536 206.348 44.624L205.372 43.584C204.748 44.224 203.9 44.576 202.972 44.576C201.628 44.576 200.62 43.76 200.332 42.448H206.764C206.988 39.376 205.772 37.424 202.78 37.424ZM200.3 41.104C200.492 39.744 201.452 38.896 202.796 38.896C204.188 38.896 205.1 39.728 205.164 41.104H200.3ZM210.962 39.184V37.488H209.122V46H210.962V41.552C211.106 40.096 212.194 39.088 213.906 39.184V37.424C212.562 37.424 211.538 38.032 210.962 39.184Z" fill="#333333"/>
</svg>
