<svg width="1440" height="60" viewBox="0 0 1440 60" fill="none" xmlns="http://www.w3.org/2000/svg">
<path d="M0 0H1440V60H0V0Z" fill="#29BCD6" fill-opacity="0.5"/>
<path d="M0 0H1134.55C1137.56 0 1140 2.44208 1140 5.45455V5.45455C1140 35.5792 1115.58 60 1085.45 60H0V0Z" fill="#2D82BE" fill-opacity="0.75"/>
<path d="M0 0H1234.55C1237.56 0 1240 2.44208 1240 5.45455V5.45455C1240 35.5792 1215.58 60 1185.45 60H0V0Z" fill="#2D82BE" fill-opacity="0.3"/>
<path d="M0 0H1334.55C1337.56 0 1340 2.44208 1340 5.45455V5.45455C1340 35.5792 1315.58 60 1285.45 60H0V0Z" fill="#2D82BE" fill-opacity="0.5"/>
</svg>
